<svg height="512pt" viewBox="0 0 512.00853 512" width="512pt" xmlns="http://www.w3.org/2000/svg"><path d="m386.125 280.929688c-2.585938 0-5.15625-.972657-7.117188-2.917969l-19.507812-19.507813-12.074219 12.066406c-2.125 2.125-5.214843 2.976563-8.113281 2.246094-2.910156-.734375-5.222656-2.953125-6.085938-5.828125l-25.601562-85.335937c-.902344-3.011719-.082031-6.261719 2.136719-8.480469 2.21875-2.226563 5.476562-3.054687 8.488281-2.140625l85.335938 25.597656c2.875.871094 5.082031 3.175782 5.816406 6.09375.734375 2.910156-.117188 5.988282-2.242188 8.113282l-11.460937 11.460937 19.480469 19.480469c3.925781 3.945312 3.925781 10.371094 0 14.3125l-21.886719 21.886718c-1.980469 1.972657-4.582031 2.953126-7.167969 2.953126zm-26.625-41.941407c2.980469 0 5.769531 1.160157 7.878906 3.261719l18.753906 18.753906 12.074219-12.066406-19.796875-19.796875c-1.824218-1.808594-2.832031-4.242187-2.832031-6.835937 0-2.601563 1.007813-5.035157 2.839844-6.859376l6.582031-6.578124-56.464844-16.941407 16.9375 56.476563 6.160156-6.164063c2.089844-2.089843 4.890626-3.25 7.867188-3.25zm0 0"/><path d="m366.941406 110.9375h-238.933594c-4.710937 0-8.53125-3.8125-8.53125-8.535156v-42.664063c0-4.71875 3.820313-8.535156 8.53125-8.535156h238.933594c4.710938 0 8.535156 3.816406 8.535156 8.535156v42.664063c0 4.722656-3.824218 8.535156-8.535156 8.535156zm-230.398437-17.066406h221.867187v-25.601563h-221.867187zm0 0"/><path d="m230.410156 204.804688h-68.269531c-4.710937 0-8.53125-3.816407-8.53125-8.535157v-51.199219c0-4.71875 3.820313-8.53125 8.53125-8.53125h68.269531c4.707032 0 8.53125 3.8125 8.53125 8.53125v51.199219c0 4.71875-3.824218 8.535157-8.53125 8.535157zm-59.734375-17.066407h51.199219v-34.132812h-51.199219zm0 0"/><path d="m320.914062 204.804688h-56.371093c-4.710938 0-8.535157-3.816407-8.535157-8.535157v-51.199219c0-4.71875 3.824219-8.53125 8.535157-8.53125h68.265625c4.710937 0 8.535156 3.8125 8.535156 8.53125v39.238282c0 2.695312-1.273438 5.230468-3.441406 6.84375-2.160156 1.621094-4.964844 2.105468-7.542969 1.328125l-1.835937-.542969.566406 1.894531c.773437 2.582031.28125 5.382813-1.332032 7.542969-1.605468 2.15625-4.140624 3.429688-6.84375 3.429688zm-47.839843-17.066407h36.378906l-1.828125-6.085937c-.902344-3.003906-.082031-6.261719 2.136719-8.480469s5.484375-3.03125 8.480469-2.140625l6.03125 1.808594v-19.234375h-51.199219zm0 0"/><path d="m331.152344 238.9375h-203.152344c-4.710938 0-8.535156-3.8125-8.535156-8.535156v-170.664063c0-4.71875 3.824218-8.535156 8.535156-8.535156h238.933594c4.710937 0 8.53125 3.816406 8.53125 8.535156v134.808594c0 2.695313-1.269532 5.230469-3.4375 6.851563-2.167969 1.605468-4.957032 2.109374-7.542969 1.324218l-35.96875-10.796875 10.804687 36.03125c.777344 2.582031.28125 5.382813-1.324218 7.542969-1.605469 2.167969-4.148438 3.4375-6.84375 3.4375zm-194.609375-17.066406h183.140625l-12.066406-40.21875c-.902344-3.011719-.085938-6.261719 2.132812-8.480469 2.21875-2.226563 5.480469-3.054687 8.492188-2.140625l40.15625 12.046875v-114.808594h-221.863282zm0 0"/><path d="m476.375 418.136719h-440.738281c-19.652344 0-35.636719-15.980469-35.636719-35.632813v-346.863281c0-19.652344 15.984375-35.63671875 35.636719-35.63671875h440.738281c19.640625 0 35.625 15.98437475 35.625 35.63671875v346.863281c.007812 19.652344-15.972656 35.632813-35.625 35.632813zm-440.730469-401.066407c-10.242187 0-18.570312 8.328126-18.570312 18.570313v346.863281c0 10.238282 8.328125 18.566406 18.570312 18.566406h440.738281c10.238282 0 18.558594-8.328124 18.558594-18.566406v-346.863281c0-10.242187-8.328125-18.570313-18.558594-18.570313zm0 0"/><path d="m476.375 418.136719h-440.730469c-19.644531 0-35.6367185-15.980469-35.6367185-35.632813v-83.832031h511.9999995v83.832031c0 19.652344-15.980468 35.632813-35.632812 35.632813zm-459.300781-102.398438v66.765625c0 10.238282 8.328125 18.566406 18.570312 18.566406h440.730469c10.238281 0 18.566406-8.328124 18.566406-18.566406v-66.765625zm0 0"/><path d="m273.074219 384.003906h-34.132813c-4.710937 0-8.53125-3.8125-8.53125-8.53125v-34.136718c0-4.71875 3.820313-8.53125 8.53125-8.53125h34.132813c4.710937 0 8.535156 3.8125 8.535156 8.53125v34.136718c0 4.71875-3.824219 8.53125-8.535156 8.53125zm-25.597657-17.066406h17.066407v-17.066406h-17.066407zm0 0"/><path d="m384.007812 512.003906h-256c-4.710937 0-8.53125-3.8125-8.53125-8.53125v-17.085937c0-14.105469 11.476563-25.582031 25.582032-25.582031h221.898437c14.109375 0 25.585938 11.476562 25.585938 25.582031v17.085937c0 4.71875-3.824219 8.53125-8.535157 8.53125zm-247.464843-17.066406h238.933593v-8.550781c0-4.703125-3.824218-8.515625-8.519531-8.515625h-221.898437c-4.695313 0-8.515625 3.8125-8.515625 8.515625zm0 0"/><path d="m349.875 477.871094h-187.734375c-4.710937 0-8.53125-3.816406-8.53125-8.535156s3.820313-8.53125 8.53125-8.53125c30.3125 0 42.667969-14.832032 42.667969-51.199219 0-4.71875 3.824218-8.535157 8.535156-8.535157h85.332031c4.710938 0 8.53125 3.816407 8.53125 8.535157 0 36.367187 12.367188 51.199219 42.667969 51.199219 4.710938 0 8.535156 3.8125 8.535156 8.53125s-3.824218 8.535156-8.535156 8.535156zm-143.070312-17.066406h98.414062c-8.726562-9.925782-13.6875-24.167969-14.820312-42.667969h-68.777344c-1.136719 18.5-6.09375 32.742187-14.816406 42.667969zm0 0"/></svg>