<svg height="506pt" viewBox="0 -4 506.41206 506" width="506pt" xmlns="http://www.w3.org/2000/svg"><path d="m.0078125 330.269531c-.015625.648438.0390625 1.292969.1718755 1.929688l30.550781 152.523437c1.269531 6.558594 6.289062 11.75 12.796875 13.242188 1.324218.320312 2.683594.484375 4.046875.488281 5.207031 0 10.121093-2.402344 13.320312-6.511719l105.429688-133.71875 192.136719 23.410156c.167968 0 .332031-.050781.503906-.042968.167968.007812.347656.101562.527344.101562.421874-.054687.84375-.136718 1.253906-.246094.515625-.058593 1.027344-.164062 1.527344-.308593.5-.199219.980468-.445313 1.433593-.734375.507813-.269532.988281-.59375 1.425781-.964844.136719-.128906.324219-.171875.460938-.304688l65.542969-66.9375 52.15625 19.773438c1.953125.742188 4.023437 1.121094 6.109375 1.125 5.53125-.019531 10.707031-2.714844 13.894531-7.234375 3.183594-4.519531 3.980469-10.300781 2.140625-15.515625l-20.914062-59.484375c0-.085937-.101563-.144531-.136719-.230469-.347657-.917968-.855469-1.765625-1.492188-2.511718-.128906-.144532-.265625-.253907-.402343-.390626-.609376-.621093-1.3125-1.144531-2.082032-1.554687-.128906-.058594-.222656-.144531-.351562-.203125l-.160156-.09375-59.257813-25.933594-27.425781-159.0625c-.914063-5.933594-4.894532-10.941406-10.46875-13.175781l-115.644532-46.214844c-4.199218-1.738281-8.921874-1.707031-13.097656.085938-4.15625 1.761719-7.445312 5.09375-9.148437 9.273437l-10.5625 25.882813-102.683594-32.851563c-6.398437-2.050781-13.402344-.15625-17.894531 4.835938-4.492188 4.996094-5.636719 12.160156-2.925782 18.304687l85.265626 193.261719-191.550782 102.691406c-.71875.414063-1.371094.933594-1.933594 1.546875-.085937.082031-.222656.109375-.300781.195313l-.066406.09375c-.085937.09375-.148437.203125-.222656.304687-.484375.589844-.886719 1.242188-1.195313 1.9375-.09375.207031-.171875.394531-.246094.597657-.3125.820312-.492187 1.683593-.539062 2.5625zm47.4101565 151.097657-28.160157-140.984376 127.269532 15.433594zm116.363281-140.636719-.292969-.042969-91.03125-11.050781 167.730469-24.847657c.289062-.066406.574219-.148437.855469-.246093.289062-.078125.578125-.136719.851562-.242188.476563-.1875.9375-.417969 1.375-.691406.230469-.144531.476563-.253906.699219-.417969l.1875-.109375 106.777344-83.125v143.566407zm159.152344-238.933594 26.839844 97.503906-91.835938 71.457031zm121.234375 197.121094 28.808593-29.421875 16.367188 46.488281zm-76.140625 53.359375v-136.738282l41.921875 18.355469.214843.085938 51.566407 22.570312zm-107.335938-334.960938 115.636719 46.253906 25.601563 148.171876-35.253907-15.429688-34.132812-124.089844c-.105469-.238281-.226563-.46875-.355469-.691406-.046875-.246094-.109375-.488281-.179688-.726562-.171874-.253907-.355468-.5-.554687-.734376-.304687-.511718-.664063-.988281-1.078125-1.417968-.359375-.363282-.75-.699219-1.167969-.996094-.488281-.339844-1.011719-.625-1.5625-.855469-.261719-.109375-.460937-.324219-.722656-.40625l-76.28125-24.40625zm-134.277344 2.816406 186.65625 59.734376-74.667968 194.132812-112.058594-253.890625zm76.542969 215.808594 23.652344 53.589844-170.878906 25.34375zm0 0"/></svg>