<?xml version="1.0" encoding="iso-8859-1"?>
<!-- Generator: Adobe Illustrator 17.1.0, SVG Export Plug-In . SVG Version: 6.00 Build 0)  -->
<!DOCTYPE svg PUBLIC "-//W3C//DTD SVG 1.1//EN" "http://www.w3.org/Graphics/SVG/1.1/DTD/svg11.dtd">
<svg version="1.1" id="Capa_1" xmlns="http://www.w3.org/2000/svg" xmlns:xlink="http://www.w3.org/1999/xlink" x="0px" y="0px"
	 viewBox="0 0 200.323 200.323" style="enable-background:new 0 0 200.323 200.323;" xml:space="preserve">
<path d="M162.67,190.725l-35.568-15.188V162.75c33.549-11.427,56.666-43.44,56.666-79.145C183.768,37.505,146.262,0,100.162,0
	C54.061,0,16.556,37.505,16.556,83.605c0,35.704,23.117,67.718,56.666,79.145v12.787l-35.567,15.188
	c-2.185,0.933-3.411,3.273-2.935,5.601c0.476,2.327,2.523,3.998,4.898,3.998h121.088c2.375,0,4.423-1.671,4.898-3.998
	C166.081,193.998,164.854,191.657,162.67,190.725z M47.105,83.605c0-29.256,23.801-53.057,53.056-53.057
	s53.056,23.801,53.056,53.057s-23.801,53.057-53.056,53.057S47.105,112.861,47.105,83.605z M100.162,40.549
	c-23.741,0-43.056,19.315-43.056,43.057s19.315,43.057,43.056,43.057c23.742,0,43.056-19.315,43.056-43.057
	S123.903,40.549,100.162,40.549z M100.162,111.933c-15.62,0-28.327-12.707-28.327-28.327c0-1.852,0.184-3.662,0.525-5.416
	c2.088,1.55,4.664,2.479,7.458,2.479c6.924,0,12.557-5.633,12.557-12.557c0-4.002-1.889-7.565-4.815-9.866
	c3.798-1.895,8.076-2.967,12.601-2.967c15.62,0,28.327,12.707,28.327,28.327S115.781,111.933,100.162,111.933z"/>
<g>
</g>
<g>
</g>
<g>
</g>
<g>
</g>
<g>
</g>
<g>
</g>
<g>
</g>
<g>
</g>
<g>
</g>
<g>
</g>
<g>
</g>
<g>
</g>
<g>
</g>
<g>
</g>
<g>
</g>
</svg>
