<svg height="496pt" viewBox="0 0 496 496" width="496pt" xmlns="http://www.w3.org/2000/svg"><path d="m32 272h176v-96h-176zm16-80h144v64h-144zm0 0"/><path d="m64 416h-16c-8.824219 0-16 7.175781-16 16v16c0 8.824219 7.175781 16 16 16h16c8.824219 0 16-7.175781 16-16v-16c0-8.824219-7.175781-16-16-16zm0 32h-16v-16h16zm0 0"/><path d="m128 416h-16c-8.824219 0-16 7.175781-16 16v16c0 8.824219 7.175781 16 16 16h16c8.824219 0 16-7.175781 16-16v-16c0-8.824219-7.175781-16-16-16zm0 32h-16v-16h16zm0 0"/><path d="m192 416h-16c-8.824219 0-16 7.175781-16 16v16c0 8.824219 7.175781 16 16 16h16c8.824219 0 16-7.175781 16-16v-16c0-8.824219-7.175781-16-16-16zm0 32h-16v-16h16zm0 0"/><path d="m64 352h-16c-8.824219 0-16 7.175781-16 16v16c0 8.824219 7.175781 16 16 16h16c8.824219 0 16-7.175781 16-16v-16c0-8.824219-7.175781-16-16-16zm0 32h-16v-16h16zm0 0"/><path d="m128 352h-16c-8.824219 0-16 7.175781-16 16v16c0 8.824219 7.175781 16 16 16h16c8.824219 0 16-7.175781 16-16v-16c0-8.824219-7.175781-16-16-16zm0 32h-16v-16h16zm0 0"/><path d="m192 352h-16c-8.824219 0-16 7.175781-16 16v16c0 8.824219 7.175781 16 16 16h16c8.824219 0 16-7.175781 16-16v-16c0-8.824219-7.175781-16-16-16zm0 32h-16v-16h16zm0 0"/><path d="m64 288h-16c-8.824219 0-16 7.175781-16 16v16c0 8.824219 7.175781 16 16 16h16c8.824219 0 16-7.175781 16-16v-16c0-8.824219-7.175781-16-16-16zm0 32h-16v-16h16zm0 0"/><path d="m128 288h-16c-8.824219 0-16 7.175781-16 16v16c0 8.824219 7.175781 16 16 16h16c8.824219 0 16-7.175781 16-16v-16c0-8.824219-7.175781-16-16-16zm0 32h-16v-16h16zm0 0"/><path d="m192 288h-16c-8.824219 0-16 7.175781-16 16v16c0 8.824219 7.175781 16 16 16h16c8.824219 0 16-7.175781 16-16v-16c0-8.824219-7.175781-16-16-16zm0 32h-16v-16h16zm0 0"/><path d="m288 120v88c0 13.230469-10.769531 24-24 24v16c22.054688 0 40-17.945312 40-40v-88h32v96c0 17.648438 14.351562 32 32 32s32-14.351562 32-32h-16c0 8.824219-7.175781 16-16 16s-16-7.175781-16-16v-96h32v-16h-96c-26.472656 0-48 21.527344-48 48h16c0-17.648438 14.351562-32 32-32zm0 0"/><path d="m476.039062 140.878906c-4.015624-18.015625-11.007812-34.933594-20.832031-50.4375l10.671875-17.472656-42.847656-42.847656-17.480469 10.679687c-15.503906-9.832031-32.421875-16.824219-50.4375-20.832031l-4.816406-19.96875h-60.59375l-4.824219 19.960938c-18.015625 4.015624-34.933594 11.007812-50.4375 20.832031l-17.472656-10.671875-42.847656 42.847656 10.757812 17.605469c-8.726562 15.402343-17.328125 41.792969-20.910156 53.417969h-123.96875c-22.054688 0-40 17.945312-40 40v272c0 22.054687 17.945312 40 40 40h160c22.054688 0 40-17.945313 40-40v-142.878907c11.976562 6.085938 30.625 14.941407 44.847656 18.789063l4.855469 20.097656h60.59375l4.824219-19.960938c18.015625-4.015624 34.933594-11.007812 50.4375-20.832031l17.472656 10.671875 42.847656-42.847656-10.679687-17.480469c9.832031-15.503906 16.824219-32.421875 20.832031-50.4375l19.96875-4.816406v-60.59375zm-252.039062 315.121094c0 13.230469-10.769531 24-24 24h-160c-13.230469 0-24-10.769531-24-24v-272c0-13.230469 10.769531-24 24-24h160c13.230469 0 24 10.769531 24 24zm-11.878906-309.921875c13.269531-47.980469 57.421875-82.078125 107.878906-82.078125 61.761719 0 112 50.238281 112 112s-50.238281 112-112 112c-30.0625 0-59-12.335938-80-33.785156v-70.214844c0-17.800781-11.777344-32.753906-27.878906-37.921875zm267.878906 47.625-17.664062 4.265625-.960938 5.070312c-3.703125 19.472657-11.183594 37.59375-22.253906 53.855469l-2.898438 4.265625 9.441406 15.457032-25.039062 25.039062-15.457031-9.441406-4.265625 2.898437c-16.261719 11.070313-34.390625 18.550781-53.855469 22.253907l-5.070313.960937-4.273437 17.671875h-35.40625l-4.265625-17.664062-5.070312-.960938c-15.472657-2.933594-42.671876-16.839844-52.960938-22.304688v-19.382812c22.574219 18.074219 50.808594 28.3125 80 28.3125 70.574219 0 128-57.425781 128-128s-57.425781-128-128-128c-58.414062 0-109.40625 40.023438-123.847656 96h-15.410156c4.90625-15.34375 13.195312-38.695312 20.136718-48.894531l2.898438-4.265625-9.441406-15.457032 25.039062-25.039062 15.457031 9.441406 4.265625-2.898437c16.261719-11.070313 34.390625-18.550781 53.855469-22.253907l5.070313-.960937 4.273437-17.671875h35.40625l4.265625 17.664062 5.070312.960938c19.472657 3.703125 37.59375 11.183594 53.855469 22.253906l4.265625 2.898438 15.457032-9.441406 25.039062 25.039062-9.441406 15.457031 2.898437 4.265625c11.070313 16.261719 18.550781 34.390625 22.253907 53.855469l.960937 5.070313 17.671875 4.273437zm0 0"/></svg>