<?xml version="1.0" encoding="iso-8859-1"?>
<!-- Generator: Adobe Illustrator 19.0.0, SVG Export Plug-In . SVG Version: 6.00 Build 0)  -->
<svg version="1.1" id="Layer_1" xmlns="http://www.w3.org/2000/svg" xmlns:xlink="http://www.w3.org/1999/xlink" x="0px" y="0px"
	 viewBox="0 0 512 512" style="enable-background:new 0 0 512 512;" xml:space="preserve">
<g>
	<g>
		<path d="M83.751,205.586H48.849c-5.747,0-10.423,4.676-10.423,10.422v34.903c0,5.746,4.676,10.421,10.423,10.421h34.902
			c5.747,0,10.423-4.675,10.423-10.421v-34.903C94.174,210.262,89.498,205.586,83.751,205.586z M78.5,245.658H54.1v-24.398h24.4
			V245.658z"/>
	</g>
</g>
<g>
	<g>
		<path d="M147.091,205.586h-34.901c-5.747,0-10.423,4.676-10.423,10.422v34.903c0,5.746,4.676,10.421,10.423,10.421h34.901
			c5.747,0,10.423-4.675,10.423-10.421v-34.903C157.514,210.262,152.838,205.586,147.091,205.586z M141.841,245.658h-24.399v-24.398
			h24.399V245.658z"/>
	</g>
</g>
<g>
	<g>
		<path d="M209.786,205.586h-34.902c-5.747,0-10.423,4.676-10.423,10.422v34.903c0,5.746,4.676,10.421,10.423,10.421h34.902
			c5.746,0,10.422-4.675,10.422-10.421v-34.903C220.208,210.262,215.532,205.586,209.786,205.586z M204.535,245.658h-24.399v-24.398
			h24.399V245.658z"/>
	</g>
</g>
<g>
	<g>
		<path d="M273.128,205.586h-34.903c-5.746,0-10.422,4.676-10.422,10.422v34.903c0,5.746,4.676,10.421,10.422,10.421h34.903
			c5.746,0,10.421-4.675,10.421-10.421v-34.903C283.549,210.262,278.874,205.586,273.128,205.586z M267.875,245.658h-24.398v-24.398
			h24.398V245.658z"/>
	</g>
</g>
<g>
	<g>
		<path d="M336.469,205.586h-34.901c-5.747,0-10.423,4.676-10.423,10.422v34.903c0,5.746,4.676,10.421,10.423,10.421h34.901
			c5.747,0,10.423-4.675,10.423-10.421v-34.903C346.89,210.262,342.216,205.586,336.469,205.586z M331.217,245.658h-24.399v-24.398
			h24.399V245.658z"/>
	</g>
</g>
<g>
	<g>
		<path d="M399.808,205.586h-34.901c-5.747,0-10.423,4.676-10.423,10.422v34.903c0,5.746,4.676,10.421,10.423,10.421h34.901
			c5.747,0,10.423-4.675,10.423-10.421v-34.903C410.231,210.262,405.555,205.586,399.808,205.586z M394.558,245.658h-24.399v-24.398
			h24.399V245.658z"/>
	</g>
</g>
<g>
	<g>
		<path d="M463.151,205.586h-34.902c-5.747,0-10.423,4.676-10.423,10.422v34.903c0,5.746,4.676,10.421,10.423,10.421h34.902
			c5.747,0,10.423-4.675,10.423-10.421v-34.903C473.574,210.262,468.898,205.586,463.151,205.586z M457.9,245.658h-24.4v-24.398
			h24.4V245.658z"/>
	</g>
</g>
<g>
	<g>
		<path d="M83.751,270.218H48.849c-5.747,0-10.423,4.676-10.423,10.423v34.902c0,5.746,4.676,10.422,10.423,10.422h34.902
			c5.747,0,10.423-4.676,10.423-10.422v-34.902C94.174,274.894,89.498,270.218,83.751,270.218z M78.5,310.291H54.1v-24.399h24.4
			V310.291z"/>
	</g>
</g>
<g>
	<g>
		<path d="M147.091,270.218h-34.901c-5.747,0-10.423,4.676-10.423,10.423v34.902c0,5.746,4.676,10.422,10.423,10.422h34.901
			c5.747,0,10.423-4.676,10.423-10.422v-34.902C157.514,274.894,152.838,270.218,147.091,270.218z M141.841,310.291h-24.399v-24.399
			h24.399V310.291z"/>
	</g>
</g>
<g>
	<g>
		<path d="M209.787,270.218h-34.903c-5.747,0-10.423,4.676-10.423,10.423v34.902c0,5.746,4.676,10.422,10.423,10.422h34.902
			c5.746,0,10.422-4.676,10.422-10.422v-34.902C220.208,274.894,215.532,270.218,209.787,270.218z M204.535,310.291h-24.399v-24.399
			h24.399V310.291z"/>
	</g>
</g>
<g>
	<g>
		<path d="M273.129,270.218h-34.903c-5.746,0-10.422,4.676-10.422,10.423v34.902c0,5.746,4.676,10.422,10.422,10.422h34.903
			c5.746,0,10.421-4.676,10.421-10.422v-34.902C283.549,274.894,278.875,270.218,273.129,270.218z M267.875,310.291h-24.398v-24.399
			h24.398V310.291z"/>
	</g>
</g>
<g>
	<g>
		<path d="M336.469,270.218h-34.901c-5.747,0-10.423,4.676-10.423,10.423v34.902c0,5.746,4.676,10.422,10.423,10.422h34.901
			c5.747,0,10.423-4.676,10.423-10.422v-34.902C346.89,274.894,342.216,270.218,336.469,270.218z M331.217,310.291h-24.399v-24.399
			h24.399V310.291z"/>
	</g>
</g>
<g>
	<g>
		<path d="M83.751,334.853H48.849c-5.747,0-10.423,4.676-10.423,10.422v34.902c0,5.746,4.676,10.422,10.423,10.422h34.902
			c5.747,0,10.423-4.676,10.423-10.422v-34.902C94.174,339.529,89.498,334.853,83.751,334.853z M78.5,374.925H54.1v-24.398h24.4
			V374.925z"/>
	</g>
</g>
<g>
	<g>
		<path d="M147.091,334.853h-34.901c-5.747,0-10.423,4.676-10.423,10.422v34.902c0,5.746,4.676,10.422,10.423,10.422h34.901
			c5.747,0,10.423-4.676,10.423-10.422v-34.902C157.514,339.529,152.838,334.853,147.091,334.853z M141.841,374.925h-24.399v-24.398
			h24.399V374.925z"/>
	</g>
</g>
<g>
	<g>
		<path d="M336.469,334.853H174.885c-5.747,0-10.423,4.676-10.423,10.422v34.902c0,5.746,4.676,10.422,10.423,10.422h161.584
			c5.747,0,10.423-4.676,10.423-10.422v-34.902C346.89,339.529,342.216,334.853,336.469,334.853z M331.217,374.925H180.135v-24.398
			h151.082V374.925z"/>
	</g>
</g>
<g>
	<g>
		<path d="M399.809,334.853h-34.901c-5.747,0-10.423,4.676-10.423,10.422v34.902c0,5.746,4.676,10.422,10.423,10.422h34.901
			c5.747,0,10.423-4.676,10.423-10.422v-34.902C410.231,339.529,405.556,334.853,399.809,334.853z M394.558,374.925h-24.399v-24.398
			h24.399V374.925z"/>
	</g>
</g>
<g>
	<g>
		<path d="M463.151,334.853h-34.902c-5.747,0-10.423,4.676-10.423,10.422v34.902c0,5.746,4.676,10.422,10.423,10.422h34.902
			c5.747,0,10.423-4.676,10.423-10.422v-34.902C473.574,339.529,468.898,334.853,463.151,334.853z M457.9,374.925h-24.4v-24.398
			h24.4V374.925z"/>
	</g>
</g>
<g>
	<g>
		<path d="M463.151,270.218h-98.243c-5.747,0-10.423,4.676-10.423,10.423v34.902c0,5.746,4.676,10.422,10.423,10.422h98.243
			c5.747,0,10.423-4.676,10.423-10.422v-34.902C473.574,274.894,468.898,270.218,463.151,270.218z M457.9,310.291h-87.741v-24.399
			H457.9V310.291z"/>
	</g>
</g>
<g>
	<g>
		<path d="M460.627,94.368H51.373C23.046,94.368,0,117.455,0,145.834v220.33c0,28.379,23.046,51.468,51.373,51.468h409.253
			c28.327,0,51.373-23.088,51.373-51.468v-220.33C512,117.455,488.954,94.368,460.627,94.368z M414.302,110.041h21.943v1.763
			c0,6.05-4.921,10.971-10.971,10.971c-6.05,0-10.971-4.921-10.971-10.971V110.041z M59.037,109.714l72.098,0.327
			c2.592,0,4.702,2.11,4.702,4.702s-2.11,4.702-4.702,4.702H59.037c-2.592,0-4.702-2.11-4.702-4.702S56.444,109.714,59.037,109.714z
			 M496.327,366.166c0,19.737-16.015,35.794-35.7,35.794H51.373c-19.685,0-35.7-16.058-35.7-35.794V145.834
			c0-15.308,9.637-28.397,23.146-33.503c-0.094,0.793-0.158,1.594-0.158,2.412c0,11.235,9.141,20.375,20.375,20.375h72.098
			c11.235,0,20.375-9.141,20.375-20.375c0-1.621-0.205-3.192-0.566-4.702h247.685v1.763c0,14.692,11.954,26.645,26.645,26.645
			c14.691,0,26.645-11.953,26.645-26.645v-1.764h8.708c19.685,0,35.7,16.057,35.7,35.794V366.166z"/>
	</g>
</g>
<g>
	<g>
		<path d="M78.825,154.186h-25.05c-8.464,0-15.349,6.885-15.349,15.349v14.253c0,8.464,6.885,15.349,15.349,15.349h25.051
			c8.464,0,15.347-6.885,15.347-15.349v-14.253C94.174,161.071,87.289,154.186,78.825,154.186z M78.5,183.462H54.1V169.86h24.4
			V183.462z"/>
	</g>
</g>
<g>
	<g>
		<path d="M142.167,154.186h-25.051c-8.464,0-15.347,6.885-15.347,15.349v14.253c0,8.464,6.885,15.349,15.347,15.349h25.051
			c8.464,0,15.347-6.885,15.347-15.349v-14.253C157.514,161.071,150.629,154.186,142.167,154.186z M141.841,183.462H117.44V169.86
			h24.401V183.462z"/>
	</g>
</g>
<g>
	<g>
		<path d="M204.861,154.186h-25.051c-8.464,0-15.347,6.885-15.347,15.349v14.253c0,8.463,6.884,15.347,15.347,15.347h25.051
			c8.464,0,15.347-6.885,15.347-15.349v-14.252C220.208,161.071,213.323,154.186,204.861,154.186z M204.536,183.462h-24.4V169.86
			h24.4V183.462z"/>
	</g>
</g>
<g>
	<g>
		<path d="M268.201,154.186H243.15c-8.464,0-15.347,6.885-15.347,15.349v14.253c0,8.463,6.884,15.347,15.347,15.347h25.051
			c8.464,0,15.347-6.885,15.347-15.349v-14.252C283.549,161.071,276.664,154.186,268.201,154.186z M267.876,183.462h-24.4V169.86h0
			h24.4V183.462z"/>
	</g>
</g>
<g>
	<g>
		<path d="M331.543,154.186h-25.051c-8.464,0-15.349,6.885-15.349,15.349v14.253c0,8.464,6.885,15.349,15.349,15.349h25.051
			c8.464,0,15.349-6.885,15.349-15.349v-14.253C346.89,161.071,340.007,154.186,331.543,154.186z M331.217,183.462h-24.4V169.86
			h24.4V183.462z"/>
	</g>
</g>
<g>
	<g>
		<path d="M394.884,154.186h-25.051c-8.464,0-15.348,6.885-15.348,15.349v14.253c0.001,8.463,6.886,15.347,15.348,15.347h25.051
			c8.464,0,15.349-6.885,15.349-15.349v-14.252C410.232,161.071,403.347,154.186,394.884,154.186z M394.559,183.462h-24.4V169.86
			h24.4V183.462z"/>
	</g>
</g>
<g>
	<g>
		<path d="M458.225,154.186h-25.051c-8.464,0-15.349,6.885-15.349,15.349v14.253c0,8.464,6.885,15.349,15.349,15.349h25.051
			c8.464,0,15.348-6.885,15.348-15.349v-14.253C473.574,161.071,466.689,154.186,458.225,154.186z M457.9,183.462h-24.4V169.86h24.4
			V183.462z"/>
	</g>
</g>
<g>
</g>
<g>
</g>
<g>
</g>
<g>
</g>
<g>
</g>
<g>
</g>
<g>
</g>
<g>
</g>
<g>
</g>
<g>
</g>
<g>
</g>
<g>
</g>
<g>
</g>
<g>
</g>
<g>
</g>
</svg>
