<svg height="466pt" viewBox="0 -37 466.048 466" width="466pt" xmlns="http://www.w3.org/2000/svg"><path d="m216 256.023438h8v8h-8zm0 0"/><path d="m216 304.023438h8v8h-8zm0 0"/><path d="m120 256.023438h8v8h-8zm0 0"/><path d="m264 304.023438h8v8h-8zm0 0"/><path d="m168 304.023438h8v8h-8zm0 0"/><path d="m168 256.023438h8v8h-8zm0 0"/><path d="m368 352.023438h8v8h-8zm0 0"/><path d="m416 304.023438h8v8h-8zm0 0"/><path d="m368 248.023438h56v16h-56zm0 0"/><path d="m416 352.023438h8v8h-8zm0 0"/><path d="m264 256.023438h8v8h-8zm0 0"/><path d="m368 304.023438h8v8h-8zm0 0"/><path d="m312 280.023438h16v32h-16zm0 0"/><path d="m120 304.023438h8v8h-8zm0 0"/><path d="m72 352.023438h8v8h-8zm0 0"/><path d="m72 304.023438h8v8h-8zm0 0"/><path d="m72 256.023438h8v8h-8zm0 0"/><path d="m448 392.023438v-176h-448v176zm-8-24c0 4.417968-3.582031 8-8 8h-24c-4.417969 0-8-3.582032-8-8v-24c0-4.417969 3.582031-8 8-8h24c4.417969 0 8 3.582031 8 8zm0-48c0 4.417968-3.582031 8-8 8h-24c-4.417969 0-8-3.582032-8-8v-24c0-4.417969 3.582031-8 8-8h24c4.417969 0 8 3.582031 8 8zm-88-80c0-4.417969 3.582031-8 8-8h72c4.417969 0 8 3.582031 8 8v32c0 4.417968-3.582031 8-8 8h-72c-4.417969 0-8-3.582032-8-8zm0 56c0-4.417969 3.582031-8 8-8h24c4.417969 0 8 3.582031 8 8v24c0 4.417968-3.582031 8-8 8h-24c-4.417969 0-8-3.582032-8-8zm0 48c0-4.417969 3.582031-8 8-8h24c4.417969 0 8 3.582031 8 8v24c0 4.417968-3.582031 8-8 8h-24c-4.417969 0-8-3.582032-8-8zm-56-72c0-4.417969 3.582031-8 8-8h32c4.417969 0 8 3.582031 8 8v48c0 4.417968-3.582031 8-8 8h-32c-4.417969 0-8-3.582032-8-8zm-48-24c0-4.417969 3.582031-8 8-8h24c4.417969 0 8 3.582031 8 8v24c0 4.417968-3.582031 8-8 8h-24c-4.417969 0-8-3.582032-8-8zm0 48c0-4.417969 3.582031-8 8-8h24c4.417969 0 8 3.582031 8 8v24c0 4.417968-3.582031 8-8 8h-24c-4.417969 0-8-3.582032-8-8zm-48-48c0-4.417969 3.582031-8 8-8h24c4.417969 0 8 3.582031 8 8v24c0 4.417968-3.582031 8-8 8h-24c-4.417969 0-8-3.582032-8-8zm0 48c0-4.417969 3.582031-8 8-8h24c4.417969 0 8 3.582031 8 8v24c0 4.417968-3.582031 8-8 8h-24c-4.417969 0-8-3.582032-8-8zm-48-48c0-4.417969 3.582031-8 8-8h24c4.417969 0 8 3.582031 8 8v24c0 4.417968-3.582031 8-8 8h-24c-4.417969 0-8-3.582032-8-8zm0 48c0-4.417969 3.582031-8 8-8h24c4.417969 0 8 3.582031 8 8v24c0 4.417968-3.582031 8-8 8h-24c-4.417969 0-8-3.582032-8-8zm-48-48c0-4.417969 3.582031-8 8-8h24c4.417969 0 8 3.582031 8 8v24c0 4.417968-3.582031 8-8 8h-24c-4.417969 0-8-3.582032-8-8zm0 48c0-4.417969 3.582031-8 8-8h24c4.417969 0 8 3.582031 8 8v24c0 4.417968-3.582031 8-8 8h-24c-4.417969 0-8-3.582032-8-8zm0 48c0-4.417969 3.582031-8 8-8h224c4.417969 0 8 3.582031 8 8v24c0 4.417968-3.582031 8-8 8h-224c-4.417969 0-8-3.582032-8-8zm-48-96c0-4.417969 3.582031-8 8-8h24c4.417969 0 8 3.582031 8 8v24c0 4.417968-3.582031 8-8 8h-24c-4.417969 0-8-3.582032-8-8zm0 48c0-4.417969 3.582031-8 8-8h24c4.417969 0 8 3.582031 8 8v24c0 4.417968-3.582031 8-8 8h-24c-4.417969 0-8-3.582032-8-8zm0 48c0-4.417969 3.582031-8 8-8h24c4.417969 0 8 3.582031 8 8v24c0 4.417968-3.582031 8-8 8h-24c-4.417969 0-8-3.582032-8-8zm-48-96c0-4.417969 3.582031-8 8-8h24c4.417969 0 8 3.582031 8 8v24c0 4.417968-3.582031 8-8 8h-24c-4.417969 0-8-3.582032-8-8zm0 48c0-4.417969 3.582031-8 8-8h24c4.417969 0 8 3.582031 8 8v24c0 4.417968-3.582031 8-8 8h-24c-4.417969 0-8-3.582032-8-8zm0 48c0-4.417969 3.582031-8 8-8h24c4.417969 0 8 3.582031 8 8v24c0 4.417968-3.582031 8-8 8h-24c-4.417969 0-8-3.582032-8-8zm0 0"/><path d="m24 352.023438h8v8h-8zm0 0"/><path d="m24 256.023438h8v8h-8zm0 0"/><path d="m24 304.023438h8v8h-8zm0 0"/><path d="m120 352.023438h208v8h-208zm0 0"/><path d="m336 16.023438c44.566406-.0625 87.316406 17.671874 118.753906 49.265624l11.292969-11.328124c-34.46875-34.53125-81.257813-53.9375005-130.046875-53.9375005s-95.578125 19.4062505-130.046875 53.9375005l11.292969 11.328124c31.4375-31.59375 74.1875-49.328124 118.753906-49.265624zm0 0"/><path d="m443.414062 76.609375c-28.457031-28.542969-67.105468-44.585937-107.414062-44.585937s-78.957031 16.042968-107.414062 44.585937l11.308593 11.308594c25.460938-25.539063 60.042969-39.894531 96.105469-39.894531s70.644531 14.355468 96.105469 39.894531zm0 0"/><path d="m420.847656 99.160156c-46.863281-46.855468-122.832031-46.855468-169.695312 0l11.296875 11.335938c40.617187-40.632813 106.484375-40.632813 147.101562 0zm0 0"/><path d="m398.214844 121.808594c-34.351563-34.382813-90.078125-34.382813-124.429688 0l11.3125 11.3125c28.113282-28.109375 73.691406-28.109375 101.804688 0zm0 0"/><path d="m336 184.023438c-8.824219-.027344-15.972656-7.175782-16-16 0-8.835938 7.164062-16 16-16s16 7.164062 16 16c-.027344 8.824218-7.175781 15.972656-16 16"/><path d="m240 176.023438c.035156 8.660156-2.777344 17.09375-8 24h-32c13.253906 0 24-10.746094 24-24 0-13.253907-10.746094-24-24-24h-144c-22.089844 0-40-17.910157-40-40 0-22.089844 17.910156-40 40-40h144v16h-144c-13.253906 0-24 10.746093-24 24 0 13.253906 10.746094 24 24 24h144c22.089844 0 40 17.910156 40 40zm0 0"/></svg>