<svg height="512pt" viewBox="-83 0 512 512" width="512pt" xmlns="http://www.w3.org/2000/svg"><path d="m202.5 360.59375c1.988281 0 3.898438-.789062 5.304688-2.195312s2.195312-3.3125 2.195312-5.304688v-50.929688c0-15.472656-5.308594-30.417968-15-42.40625v-67.257812c0-15.164062-12.335938-27.5-27.5-27.5h-50c-12.5625 0-23.179688 8.472656-26.453125 20h-46.046875v-15h22.5c4.140625 0 7.5-3.359375 7.5-7.5 0-4.144531-3.359375-7.5-7.5-7.5h-7.5v-132.5c0-1.988281-.789062-3.894531-2.195312-5.304688l-15-15c-2.929688-2.925781-7.679688-2.925781-10.609376 0l-15 15c-1.40625 1.40625-2.195312 3.316407-2.195312 5.304688v132.5h-7.5c-4.140625 0-7.5 3.355469-7.5 7.5 0 4.140625 3.359375 7.5 7.5 7.5h22.5v15h-7.5c-12.40625 0-22.5 10.09375-22.5 22.5s10.09375 22.5 22.5 22.5h15c4.140625 0 7.5-3.359375 7.5-7.5v-22.5h45v59.757812c-9.691406 11.988282-15 26.933594-15 42.40625v50.929688c0 4.144531 3.359375 7.5 7.5 7.5 8.023438 0 15.773438-2.199219 22.5-6.1875v134.6875l-24.871094 8.289062c-3.929687 1.308594-6.054687 5.558594-4.746094 9.488282 1.050782 3.140625 3.976563 5.128906 7.113282 5.128906.789062 0 1.585937-.125 2.375-.386719l30-10c3.0625-1.019531 5.128906-3.886719 5.128906-7.113281v-140.09375c6.726562 3.988281 14.476562 6.1875 22.5 6.1875 8.019531 0 15.769531-2.199219 22.5-6.1875v140.09375c0 3.226562 2.0625 6.09375 5.125 7.113281l30 10c.789062.261719 1.589844.386719 2.375.386719 3.140625 0 6.066406-1.988281 7.113281-5.128906 1.308594-3.929688-.8125-8.179688-4.742187-9.488282l-24.871094-8.289062v-134.691406c6.726562 3.992187 14.480469 6.191406 22.5 6.191406zm-172.5-334.988281 7.5-7.5 7.5 7.5v129.394531h-15zm0 189.394531h-7.5c-4.136719 0-7.5-3.363281-7.5-7.5s3.363281-7.5 7.5-7.5h7.5zm112.5 130.59375c-8.84375 0-17.203125-4.042969-22.726562-10.902344-.804688-3.273437-3.75-5.707031-7.273438-5.707031-3.507812 0-6.445312 2.410156-7.265625 5.664063-3.925781 4.890624-9.273437 8.367187-15.234375 9.960937v-42.445313c0-12.785156 4.660156-25.109374 13.125-34.703124 1.207031-1.371094 1.875-3.136719 1.875-4.960938v-70c0-6.894531 5.605469-12.5 12.5-12.5h50c6.890625 0 12.5 5.605469 12.5 12.5v70c0 1.824219.667969 3.589844 1.875 4.960938 8.464844 9.59375 13.125 21.917968 13.125 34.703124v42.445313c-6.542969-1.75-12.375-5.753906-16.363281-11.425781-.039063-.054688-.082031-.101563-.121094-.152344-.113281-.152344-.230469-.300781-.351563-.441406-.070312-.082032-.144531-.15625-.214843-.234375-.121094-.128907-.246094-.25-.375-.371094-.074219-.066406-.148438-.136719-.222657-.199219-.175781-.152344-.359374-.289062-.546874-.421875-.03125-.023437-.0625-.050781-.09375-.074219-.230469-.152343-.464844-.292968-.710938-.421874-.058594-.03125-.117188-.054688-.175781-.085938-.191407-.09375-.386719-.179688-.582031-.257812-.078126-.03125-.15625-.058594-.234376-.085938-.183593-.066406-.375-.125-.566406-.175781-.085937-.023438-.167968-.046875-.253906-.066407-.195312-.042968-.398438-.078124-.601562-.109374-.078126-.011719-.15625-.027344-.234376-.035157-.277343-.03125-.554687-.050781-.839843-.050781-.300781 0-.582031.019531-.863281.050781-.070313.007813-.140626.023438-.210938.03125-.214844.03125-.425781.070313-.632812.117188-.074219.015625-.144532.035156-.21875.054687-.207032.054688-.414063.117188-.613282.191406-.0625.023438-.128906.042969-.191406.070313-.222656.085937-.4375.183594-.648438.289063-.035156.019531-.074218.035156-.109374.054687-.5.261719-.964844.578125-1.390626.941406-.054687.046875-.105468.09375-.15625.140625-.15625.140625-.308593.289063-.453124.445313-.050782.054687-.105469.113281-.15625.171875-.148438.171875-.292969.351562-.425782.535156-.023437.03125-.050781.058594-.070312.089844-5.472656 7.769531-14.394532 12.410156-23.871094 12.410156zm0 0"/><path d="m337.5 135h-120c-4.144531 0-7.5 3.355469-7.5 7.5v81.667969c0 34.160156 18.003906 54.335937 33.105469 65.246093 16.070312 11.605469 32.09375 15.257813 32.765625 15.40625.535156.117188 1.082031.179688 1.628906.179688.542969 0 1.089844-.0625 1.625-.179688.675781-.148437 16.695312-3.800781 32.765625-15.40625 15.105469-10.910156 33.109375-31.085937 33.109375-65.246093v-81.667969c0-4.144531-3.359375-7.5-7.5-7.5zm-7.5 89.167969c0 48.472656-43.273438 63.039062-52.5 65.59375-9.226562-2.554688-52.5-17.121094-52.5-65.59375v-74.167969h105zm0 0"/><path d="m259.238281 264.023438c4.507813 3.460937 9.65625 6.414062 15.296875 8.777343.25.109375.511719.203125.777344.285157.027344.007812.054688.011718.085938.019531.207031.0625.414062.117187.628906.160156.078125.015625.15625.023437.234375.035156.164062.027344.328125.058594.492187.074219.25.023438.496094.035156.746094.035156s.5-.011718.746094-.035156c.207031-.023438.410156-.054688.613281-.09375.039063-.003906.078125-.007812.117187-.015625.539063-.109375 1.054688-.277344 1.546876-.492187 5.023437-2.113282 9.667968-4.695313 13.800781-7.683594 13.914062-10.042969 20.675781-23.433594 20.675781-40.925782v-51.664062c0-4.144531-3.355469-7.5-7.5-7.5h-29.785156c-.070313-.003906-.140625-.011719-.210938-.011719-.074218 0-.140625.007813-.214844.011719h-29.789062c-4.144531 0-7.5 3.355469-7.5 7.5v51.667969c0 16.878906 6.292969 29.917969 19.238281 39.855469zm40.761719-39.855469c0 12.671875-4.460938 21.542969-14.457031 28.765625-.175781.125-.363281.246094-.542969.371094v-73.304688h15zm-45-44.167969h15v73.296875c-.542969-.378906-1.085938-.753906-1.625-1.167969-9.25-7.105468-13.375-15.726562-13.375-27.960937zm0 0"/><path d="m90 97.5c0 28.949219 23.550781 52.5 52.5 52.5s52.5-23.550781 52.5-52.5c0-17.855469-8.96875-33.648438-22.628906-43.136719 4.671875-4.125 7.628906-10.15625 7.628906-16.863281 0-20.679688-16.824219-37.5-37.5-37.5-20.679688 0-37.5 16.820312-37.5 37.5 0 6.707031 2.953125 12.738281 7.625 16.863281-13.660156 9.488281-22.625 25.28125-22.625 43.136719zm52.5 37.5c-20.679688 0-37.5-16.824219-37.5-37.5 0-9.664062 3.675781-18.484375 9.699219-25.136719 16.691406 18.800781 39.574219 30.242188 64.605469 32.296875-3.351563 17.261719-18.578126 30.339844-36.804688 30.339844zm0-75c17.960938 0 33.003906 12.695312 36.648438 29.578125-20.152344-2-38.578126-11.210937-52.296876-26.144531 4.769532-2.199219 10.066407-3.433594 15.648438-3.433594zm-15-15c-4.136719 0-7.5-3.363281-7.5-7.5 0-12.40625 10.09375-22.5 22.5-22.5s22.5 10.09375 22.5 22.5c0 4.136719-3.363281 7.5-7.5 7.5zm0 0"/></svg>