<svg height="496pt" viewBox="0 0 496 496" width="496pt" xmlns="http://www.w3.org/2000/svg"><path d="m496 328c0-28.527344-11.328125-55.144531-31.878906-74.9375-9.472656-9.117188-20.367188-16.109375-32.121094-21v-184.0625h-32v-48h-136c-20.382812 0-38.199219 10.984375-48 27.304688-9.800781-16.320313-27.617188-27.304688-48-27.304688h-136v48h-32v288h176.808594c3.710937 18.230469 19.878906 32 39.191406 32s35.480469-13.769531 39.191406-32h33.265625c2.152344 28.34375 15.589844 54.207031 37.605469 72.214844-3.726562 4.234375-6.0625 9.722656-6.0625 15.785156 0 10.574219 6.921875 19.472656 16.433594 22.664062 3.308594 27.742188 26.941406 49.335938 55.566406 49.335938s52.257812-21.59375 55.566406-49.335938c9.511719-3.191406 16.433594-12.089843 16.433594-22.664062 0-6.0625-2.335938-11.542969-6.054688-15.769531 23.992188-19.664063 38.054688-48.839844 38.054688-80.230469zm-80-264v162.894531c-5.230469-1.230469-10.558594-2.101562-16-2.519531v-160.375zm-248.335938 224-4.40625-4.414062 14.0625-23.746094-2.335937-4.046875c-4.777344-8.289063-8.480469-17.25-11.007813-26.640625l-1.214843-4.511719-26.761719-6.847656v-35.578125l26.761719-6.847656 1.214843-4.511719c2.527344-9.390625 6.230469-18.351563 11.007813-26.640625l2.335937-4.046875-14.0625-23.742188 25.15625-25.160156 23.746094 14.0625 4.046875-2.335937c8.289063-4.777344 17.25-8.480469 26.640625-11.007813l4.511719-1.214844 6.847656-26.769531h35.578125l6.847656 26.761719 4.511719 1.214843c9.390625 2.527344 18.351563 6.230469 26.640625 11.007813l4.046875 2.335937 23.71875-14.046874 28.449219 28.679687v104.472656c-39 3.054688-72.71875 28.734375-87.695312 63.574219zm96.335938-272h120v81.230469l-25.855469-26.078125-26.496093 15.695312c-6.929688-3.65625-14.234376-6.664062-21.792969-9l-7.648438-29.847656h-60.421875l-7.640625 29.832031c-3.449219 1.0625-6.824219 2.3125-10.152343 3.65625v-25.488281c.007812-22.054688 17.953124-40 40.007812-40zm-216 0h120c22.054688 0 40 17.945312 40 40v28.257812l-22.121094-13.097656-42.71875 42.71875 15.679688 26.480469c-3.65625 6.929687-6.664063 14.234375-9 21.792969l-29.839844 7.640625v60.421875l29.832031 7.640625c2.335938 7.558593 5.351563 14.863281 9 21.792969l-15.679687 26.480468 1.886718 1.871094h-97.039062zm192 304v8c0 13.230469-10.769531 24-24 24s-24-10.769531-24-24v-8h-176v-256h16v240h258.96875c-1.28125 5.207031-2.105469 10.550781-2.535156 16zm64.023438 5.9375c1.046874-45.609375 38.960937-84.128906 84.519531-85.867188 24.226562-.925781 47.089843 7.792969 64.472656 24.53125 17.398437 16.734376 26.984375 39.253907 26.984375 63.398438 0 28.992188-14.230469 55.703125-38.054688 72.199219-.65625-.054688-1.28125-.199219-1.945312-.199219h-24v-56h12c15.441406 0 28-12.558594 28-28s-12.558594-28-28-28-28 12.558594-28 28v12h-16v-12c0-15.441406-12.558594-28-28-28s-28 12.558594-28 28 12.558594 28 28 28h12v56h-24c-.664062 0-1.289062.144531-1.9375.191406-24.496094-16.933594-38.71875-44.421875-38.039062-74.253906zm63.976562 2.0625h-12c-6.617188 0-12-5.382812-12-12s5.382812-12 12-12 12 5.382812 12 12zm32 72h-16v-56h16zm16-72v-12c0-6.617188 5.382812-12 12-12s12 5.382812 12 12-5.382812 12-12 12zm-24 152c-19.3125 0-35.472656-13.769531-39.191406-32h78.382812c-3.71875 18.230469-19.878906 32-39.191406 32zm48-48h-96c-4.40625 0-8-3.59375-8-8s3.59375-8 8-8h96c4.40625 0 8 3.59375 8 8s-3.59375 8-8 8zm0 0"/><path d="m192 200c0-44.113281 35.886719-80 80-80s80 35.886719 80 80c0 2.449219-.113281 4.863281-.328125 7.257812l15.9375 1.421876c.253906-2.855469.390625-5.75.390625-8.679688 0-52.9375-43.0625-96-96-96s-96 43.0625-96 96c0 32.015625 15.878906 61.808594 42.472656 79.695312l8.925782-13.269531c-22.167969-14.914062-35.398438-39.746093-35.398438-66.425781zm0 0"/><path d="m272 136c-35.289062 0-64 28.710938-64 64s28.710938 64 64 64 64-28.710938 64-64-28.710938-64-64-64zm0 112c-26.472656 0-48-21.527344-48-48s21.527344-48 48-48 48 21.527344 48 48-21.527344 48-48 48zm0 0"/><path d="m64 32h112v16h-112zm0 0"/><path d="m64 64h80v16h-80zm0 0"/><path d="m64 96h64v16h-64zm0 0"/></svg>