<svg height="496pt" viewBox="0 0 496 496" width="496pt" xmlns="http://www.w3.org/2000/svg"><path d="m464 160v-48h-96.40625c-4.144531-62.441406-56.121094-112-119.59375-112s-115.449219 49.558594-119.59375 112h-96.40625v48h-32v304h208.808594c3.71875 18.230469 19.871094 32 39.191406 32s35.480469-13.769531 39.191406-32h208.808594v-304zm-315.167969-71.296875c8.390625 1.984375 15.199219 8.410156 17.359375 17.058594l6.640625 26.566406c2.894531 11.582031 13.265625 19.671875 25.199219 19.671875 14.320312 0 25.96875-11.648438 25.96875-25.96875v-34.03125c0-10.015625 4.792969-19.585938 12.808594-25.601562 12.015625-9.015626 19.191406-23.375 19.191406-38.398438 0-3.96875-.464844-7.863281-1.34375-11.664062 6.183594.390624 12.207031 1.320312 18.046875 2.753906-.445313 2.957031-.703125 5.933594-.703125 8.910156v4c0 17.527344-8.375 34.28125-22.398438 44.808594-6.015624 4.496094-9.601562 11.679687-9.601562 19.191406 0 13.230469 10.769531 24 24 24h41.832031c10.367188 0 20.542969-1.839844 30.257813-5.488281 5.246094-1.976563 10.246094-4.511719 15.015625-7.472657.535156 4.257813.894531 8.5625.894531 12.960938 0 13.273438-2.59375 25.929688-7.152344 37.617188-14.3125-13.921876-33.121094-21.617188-53.128906-21.617188h-7.71875c-15.023438 0-29.382812 7.175781-38.398438 19.191406-6.015624 8.015625-15.585937 12.808594-25.601562 12.808594h-25.574219c-8.410156 0-16.546875 2.464844-23.53125 7.128906-2.527343 1.6875-4.832031 3.6875-6.941406 5.871094-12.488281-17.160156-19.953125-38.199219-19.953125-61 0-10.902344 1.703125-21.414062 4.832031-31.296875zm30.9375 99.738281c4.351563-2.914062 9.414063-4.441406 14.65625-4.441406h25.574219c15.023438 0 29.382812-7.175781 38.398438-19.199219 6.015624-8.007812 15.585937-12.800781 25.601562-12.800781h7.71875c16.105469 0 31.234375 6.273438 42.625 17.65625 1.007812 1.007812 2 2.105469 3 3.296875-18.144531 30.503906-51.351562 51.046875-89.34375 51.046875-28.734375 0-54.785156-11.71875-73.625-30.632812 1.585938-1.871094 3.351562-3.574219 5.394531-4.925782zm268.230469 213.558594c-21.488281-21.488281-50.632812-34-81.6875-34h-28.625c-31.054688 0-60.199219 12.511719-81.6875 34v-162.40625c59.785156-3.96875 107.625-51.808594 111.59375-111.59375h80.40625zm-8.65625 14h-174.6875c18.71875-20.191406 44.976562-32 73.03125-32h28.625c28.046875 0 54.3125 11.808594 73.03125 32zm-91.769531-325.878906c-5.277344 3.933594-11.007813 7.117187-17.109375 9.40625-7.914063 2.96875-16.199219 4.472656-24.632813 4.472656h-41.832031c-4.414062 0-8-3.585938-8-8 0-2.503906 1.191406-4.894531 3.199219-6.398438 18.03125-13.53125 28.800781-35.066406 28.800781-57.601562v-4c0-1.289062.167969-2.585938.28125-3.871094 28.375 11.96875 50.335938 36.191406 59.292969 65.992188zm-109.519531-73.617188c1.265624 3.703125 1.945312 7.542969 1.945312 11.496094 0 10.015625-4.792969 19.585938-12.800781 25.601562-12.023438 9.015626-19.199219 23.375-19.199219 38.398438v34.03125c0 5.496094-4.472656 9.96875-9.96875 9.96875-4.582031 0-8.558594-3.105469-9.679688-7.542969l-6.640624-26.570312c-3.414063-13.703125-13.773438-24.101563-26.75-28.070313 15.640624-31.382812 46.605468-53.832031 83.09375-57.3125zm-109.648438 111.496094c3.96875 59.785156 51.808594 107.625 111.59375 111.59375v162.40625c-21.488281-21.488281-50.632812-34-81.6875-34h-28.625c-31.054688 0-60.199219 12.511719-81.6875 34v-274zm102.9375 288h-174.6875c18.71875-20.191406 44.976562-32 73.03125-32h28.625c28.046875 0 54.3125 11.808594 73.03125 32zm248.65625 32h-208v8c0 13.230469-10.769531 24-24 24s-24-10.769531-24-24v-8h-208v-272h16v256h432v-256h16zm0 0"/><path d="m379.71875 240c-9.695312 0-18.808594 3.777344-25.65625 10.625l-2.0625 2.0625-2.0625-2.0625c-6.847656-6.847656-15.960938-10.625-25.65625-10.625-20.007812 0-36.28125 16.273438-36.28125 36.28125 0 9.695312 3.777344 18.808594 10.625 25.65625l53.375 53.375 53.375-53.375c6.847656-6.847656 10.625-15.960938 10.625-25.65625 0-20.007812-16.273438-36.28125-36.28125-36.28125zm14.34375 50.625-42.0625 42.0625-42.0625-42.0625c-3.824219-3.824219-5.9375-8.921875-5.9375-14.34375 0-11.175781 9.105469-20.28125 20.28125-20.28125 5.421875 0 10.511719 2.113281 14.34375 5.9375l13.375 13.375 13.375-13.375c3.824219-3.824219 8.921875-5.9375 14.34375-5.9375 11.175781 0 20.28125 9.105469 20.28125 20.28125 0 5.421875-2.113281 10.519531-5.9375 14.34375zm0 0"/><path d="m96 356.945312 105.886719-52.945312-105.886719-52.945312zm16-80 54.113281 27.054688-54.113281 27.054688zm0 0"/><path d="m352 208h80v16h-80zm0 0"/><path d="m384 176h48v16h-48zm0 0"/><path d="m384 144h48v16h-48zm0 0"/><path d="m64 208h80v16h-80zm0 0"/><path d="m64 176h48v16h-48zm0 0"/><path d="m64 144h48v16h-48zm0 0"/></svg>